<?xml version="1.0" standalone="no"?>
<!DOCTYPE svg PUBLIC "-//W3C//DTD SVG 1.1//EN" "http://www.w3.org/Graphics/SVG/1.1/DTD/svg11.dtd" >
<svg xmlns="http://www.w3.org/2000/svg">
<metadata>Generated by IcoMoon</metadata>
<defs>
<font id="icon_font_bc" horiz-adv-x="1024">
<font-face units-per-em="1024" ascent="960" descent="-64" />
<missing-glyph horiz-adv-x="1024" />
<glyph unicode="&#x20;" horiz-adv-x="512" d="" />
<glyph unicode="&#xe900;" glyph-name="advertencia" d="M547.2 102.4c0-26.51-21.49-48-48-48v0c-26.51 0-48 21.49-48 48v0c0 26.51 21.49 48 48 48v0c26.51 0 48-21.49 48-48v0zM499.2 224c-22.4 0-41.6 19.2-41.6 41.6v380.8c0 22.4 19.2 41.6 41.6 41.6s44.8-19.2 44.8-41.6v-380.8c0-22.4-19.2-41.6-44.8-41.6zM998.4 192l-400 691.2c-41.6 70.4-144 70.4-185.6 0l-400-691.2c-41.6-70.4 9.6-160 92.8-160h800c83.2 0 134.4 89.6 92.8 160z" />
<glyph unicode="&#xe901;" glyph-name="agrupar" d="M947.2 960h-320c-41.6 0-76.8-35.2-76.8-80v-320c0-41.6 35.2-76.8 80-76.8h320c41.6 0 76.8 35.2 76.8 80v320c0 41.6-35.2 76.8-80 76.8zM947.2 556.8h-320c-3.2 0-6.4 3.2-6.4 6.4v320c0 3.2 3.2 6.4 6.4 6.4h320c3.2 0 6.4-3.2 6.4-6.4v-320c0-3.2-3.2-6.4-6.4-6.4zM947.2 412.8h-320c-41.6 0-76.8-35.2-76.8-80v-320c0-41.6 35.2-76.8 80-76.8h320c41.6 0 76.8 35.2 76.8 80v320c0 41.6-35.2 76.8-80 76.8zM947.2 9.6h-320c-3.2 0-6.4 3.2-6.4 6.4v320c0 3.2 3.2 6.4 6.4 6.4h320c3.2 0 6.4-3.2 6.4-6.4v-320c0-3.2-3.2-6.4-6.4-6.4zM396.8 960h-320c-41.6 0-76.8-35.2-76.8-80v-320c0-41.6 35.2-76.8 80-76.8h320c41.6 0 76.8 35.2 76.8 80v320c0 41.6-35.2 76.8-80 76.8zM400 556.8h-320c-3.2 0-6.4 3.2-6.4 6.4v320c0 3.2 3.2 6.4 6.4 6.4h320c3.2 0 6.4-3.2 6.4-6.4v-320c0-3.2-3.2-6.4-6.4-6.4zM396.8 412.8h-320c-41.6 0-76.8-35.2-76.8-80v-320c0-41.6 35.2-76.8 80-76.8h320c41.6 0 76.8 35.2 76.8 80v320c0 41.6-35.2 76.8-80 76.8zM400 9.6h-320c-3.2 0-6.4 3.2-6.4 6.4v320c0 3.2 3.2 6.4 6.4 6.4h320c3.2 0 6.4-3.2 6.4-6.4v-320c0-3.2-3.2-6.4-6.4-6.4z" />
<glyph unicode="&#xe902;" glyph-name="bloquear_only" d="M827.128 538.508h-48.227v147.985c0 151.236-122.601 273.837-273.837 273.837s-273.837-122.601-273.837-273.837v0-147.654h-48.557c0 0-0.001 0-0.001 0-27.912 0-50.539-22.627-50.539-50.539 0-0.116 0-0.232 0.001-0.348v0.018-501.43c0-27.912 22.627-50.539 50.539-50.539h644.459c27.912 0 50.539 22.627 50.539 50.539v0 501.43c0 27.912-22.627 50.539-50.539 50.539v0zM331.644 686.163c0 95.412 77.347 172.759 172.759 172.759s172.759-77.347 172.759-172.759v0-147.654h-344.857zM776.588 38.73h-543.381v398.699h543.381v-398.699z" />
<glyph unicode="&#xe903;" glyph-name="bloquear" d="M512-64c-282.77 0-512 229.23-512 512s229.23 512 512 512c282.77 0 512-229.23 512-512v0c-0.384-282.615-229.384-511.616-511.963-512h-0.037zM512 915.42c-257.403 0-466.069-208.666-466.069-466.069s208.666-466.069 466.069-466.069c257.403 0 466.069 208.666 466.069 466.069v0c-0.959 256.744-209.217 464.528-466.050 464.718h-0.018zM699.778 500.686h-28.369v87.81c0 88.226-71.521 159.747-159.747 159.747s-159.747-71.521-159.747-159.747v0-87.81h-28.369c-16.228 0-29.383-13.155-29.383-29.383v-292.475c0-16.228 13.155-29.383 29.383-29.383h376.232c16.228 0 29.383 13.155 29.383 29.383v0 292.475c0 16.228-13.155 29.383-29.383 29.383v0zM411.018 588.496c0 55.957 45.362 101.319 101.319 101.319s101.319-45.362 101.319-101.319v0-87.81h-202.639zM670.396 209.9h-315.441v232.021h317.129v-233.372z" />
<glyph unicode="&#xe904;" glyph-name="buscar" d="M998.4 83.2l-224 224c0 0-3.2 3.2-3.2 3.2 44.8 67.2 70.4 147.2 70.4 230.4 0 230.4-188.8 419.2-419.2 419.2s-422.4-188.8-422.4-422.4c0-233.6 188.8-422.4 422.4-422.4 86.4 0 166.4 25.6 230.4 70.4 0 0 3.2-3.2 3.2-3.2l224-224c32-32 86.4-32 121.6 0 32 35.2 32 89.6-3.2 124.8zM422.4 201.6c-188.8 0-339.2 150.4-339.2 336s150.4 339.2 339.2 339.2c185.6 0 339.2-150.4 339.2-339.2s-153.6-336-339.2-336z" />
<glyph unicode="&#xe905;" glyph-name="calendario" d="M451.2 380.8h128v-128h-128v128zM451.2 572.8h128v-128h-128v128zM256 768c19.2 0 32 12.8 32 32v128c0 19.2-12.8 32-32 32s-32-16-32-32v-128c0-19.2 16-32 32-32zM771.2 768c19.2 0 32 16 32 32v128c0 19.2-12.8 32-32 32s-32-16-32-32v-128c0-19.2 16-32 32-32zM643.2 572.8h128v-128h-128v128zM643.2 380.8h128v-128h-128v128zM256 380.8h128v-128h-128v128zM451.2 201.6h128v-128h-128v128zM643.2 201.6h128v-128h-128v128zM256 201.6h128v-128h-128v128zM864 832h-25.6v-32c0-35.2-28.8-64-64-64s-64 28.8-64 64v32h-390.4v-32c0-35.2-28.8-64-64-64s-64 28.8-64 64v32h-25.6c-38.4 0-70.4-32-70.4-70.4v-755.2c0-38.4 32-70.4 70.4-70.4h697.6c38.4 0 70.4 32 70.4 70.4v755.2c0 38.4-32 70.4-70.4 70.4zM867.2 6.4c0-3.2-3.2-6.4-6.4-6.4h-694.4c-3.2 0-6.4 3.2-6.4 6.4v630.4h707.2v-630.4zM256 572.8h128v-128h-128v128z" />
<glyph unicode="&#xe906;" glyph-name="cancel" d="M1024 841.6l-118.4 118.4-393.6-393.6-393.6 393.6-118.4-118.4 393.6-393.6-393.6-393.6 118.4-118.4 393.6 393.6 393.6-393.6 118.4 118.4-393.6 393.6z" />
<glyph unicode="&#xe907;" glyph-name="editar_aprobar" d="M393.6 38.4l-393.6 393.6 131.2 131.2 262.4-262.4 499.2 499.2 131.2-131.2z" />
<glyph unicode="&#xe908;" glyph-name="checkbox" d="M1024-64h-1024v1024h1024v-1024zM67.2 3.2h886.4v889.6h-886.4v-889.6z" />
<glyph unicode="&#xe909;" d="M1024-64h-1024v1024h1024v-1024z" />
<glyph unicode="&#xe90a;" d="M403.2 204.8c-19.2 0-38.4 6.4-54.4 22.4l-150.4 144c-32 28.8-32 80-3.2 108.8 28.8 32 80 32 108.8 3.2l96-89.6 297.6 307.2c28.8 32 80 32 108.8 3.2 32-28.8 32-80 3.2-108.8l-352-361.6c-12.8-19.2-32-28.8-54.4-28.8z" />
<glyph unicode="&#xe90b;" glyph-name="confirmacion" d="M457.6 246.4c9.6 0 22.4 6.4 28.8 12.8l316.8 355.2c16 16 12.8 41.6-3.2 57.6s-41.6 16-57.6-3.2l-291.2-326.4-172.8 137.6c-19.2 12.8-44.8 9.6-57.6-6.4-12.8-19.2-9.6-44.8 6.4-57.6l204.8-160c9.6-6.4 16-9.6 25.6-9.6zM512-64c-281.6 0-512 230.4-512 512s230.4 512 512 512c281.6 0 512-230.4 512-512s-230.4-512-512-512z" />
<glyph unicode="&#xe90c;" glyph-name="icono_contacto" d="M512-64c-281.6 0-512 230.4-512 512s230.4 512 512 512 512-230.4 512-512-230.4-512-512-512zM512 915.2c-256 0-467.2-211.2-467.2-467.2s211.2-467.2 467.2-467.2 467.2 211.2 467.2 467.2-211.2 467.2-467.2 467.2zM678.4 121.6c-99.2 0-236.8 76.8-326.4 185.6-96 115.2-147.2 265.6-124.8 364.8 6.4 22.4 54.4 60.8 96 92.8 9.6 6.4 19.2 9.6 32 9.6 16 0 28.8-6.4 38.4-16l3.2-3.2 57.6-153.6c9.6-22.4 3.2-54.4-16-70.4 0 0-28.8-25.6-41.6-35.2 0-12.8 9.6-41.6 35.2-76.8 38.4-51.2 89.6-96 115.2-99.2l38.4 32c9.6 9.6 22.4 12.8 38.4 12.8 12.8 0 22.4-3.2 35.2-9.6l140.8-83.2 3.2-3.2c16-22.4 16-51.2-6.4-70.4-35.2-35.2-83.2-76.8-105.6-76.8h-12.8z" />
<glyph unicode="&#xe90d;" glyph-name="contenedor_paso_a_paso" d="M1020.8 505.6c9.6-32 6.4-60.8-32-73.6-44.8-19.2-76.8-28.8-131.2-51.2-28.8-9.6-54.4-22.4-86.4-32-28.8-12.8-60.8-22.4-96-35.2-134.4-51.2-288-108.8-480-179.2-41.6-12.8-83.2 6.4-99.2 51.2-32 99.2-67.2 198.4-102.4 288-16 41.6 6.4 80 48 89.6 96 28.8 182.4 48 268.8 70.4 83.2 19.2 156.8 38.4 227.2 54.4 140.8 32 233.6 51.2 329.6 67.2 48 9.6 64-12.8 76.8-41.6 28.8-70.4 54.4-137.6 76.8-208z" />
<glyph unicode="&#xe90e;" glyph-name="descargar" d="M915.2 332.8v-313.6h-800v313.6c0 22.4-19.2 41.6-41.6 41.6v0c-22.4 0-41.6-19.2-41.6-41.6v-326.4c0-38.4 32-70.4 70.4-70.4h825.6c38.4 0 70.4 32 70.4 70.4v326.4c0 22.4-19.2 41.6-41.6 41.6v0c-22.4 0-41.6-19.2-41.6-41.6zM502.4 224l-201.6 243.2c0 0-32 28.8 3.2 28.8s112 0 112 0 0 384 0 448c0 0-3.2 16 22.4 16s140.8 0 160 0c19.2 0 19.2-16 19.2-16 0-60.8 0-441.6 0-441.6s64 0 105.6 0c41.6 0 9.6-28.8 9.6-28.8s-169.6-227.2-195.2-249.6c-19.2-19.2-35.2 0-35.2 0z" />
<glyph unicode="&#xe90f;" glyph-name="editar" d="M371.2 118.4l-188.8 188.8 438.4 438.4 188.8-188.8-438.4-438.4zM144 227.2l147.2-147.2-211.2-60.8 64 208zM988.8 806.4l-118.4 118.4c-22.4 22.4-105.6 67.2-172.8 0l-595.2-598.4c-6.4-6.4-9.6-12.8-9.6-19.2l-92.8-316.8c-3.2-16 0-32 9.6-41.6 12.8-12.8 35.2-12.8 44.8-12.8l320 89.6c6.4 3.2 12.8 6.4 19.2 9.6l595.2 595.2c48 51.2 48 128 0 176v0z" />
<glyph unicode="&#xe910;" glyph-name="editar_cancelar" d="M892.8 739.2l-89.6 89.6-291.2-291.2-291.2 291.2-89.6-89.6 291.2-291.2-291.2-291.2 89.6-89.6 291.2 291.2 291.2-291.2 89.6 89.6-291.2 291.2z" />
<glyph unicode="&#xe911;" glyph-name="select" horiz-adv-x="1914" d="M1894.431 940.104c-12.259 12.236-29.183 19.803-47.874 19.803s-35.615-7.567-47.875-19.804l0.001 0.001-840.588-842.453-842.453 842.453c-11.038 8.116-24.899 12.989-39.897 12.989-37.428 0-67.769-30.341-67.769-67.769 0-15.468 5.182-29.725 13.904-41.13l-0.12 0.163 886.596-888.461c11.712-12.009 27.947-19.56 45.946-19.895l0.062-0.001c18.679 0.17 35.558 7.734 47.881 19.903l-0.007-0.007 890.327 888.461c12.544 12.116 20.333 29.085 20.333 47.874s-7.789 35.758-20.314 47.855l-0.019 0.018z" />
<glyph unicode="&#xe912;" glyph-name="eliminar" d="M764.8 579.2v-563.2h-486.4v563.2h-80v-576c0-38.4 32-67.2 67.2-67.2h512c38.4 0 70.4 32 70.4 70.4v576h-83.2zM380.8 768c19.2 0 32 12.8 32 32v96h233.6v-96c0-19.2 12.8-32 32-32s32 12.8 32 32v128c0 12.8-9.6 25.6-19.2 28.8-3.2 0-3.2 0-6.4 0s-3.2 0-6.4 0h-297.6c-19.2 0-32-12.8-32-32v-128c0-16 12.8-28.8 32-28.8zM844.8 832h-105.6v-32c0-35.2-28.8-64-64-64s-64 28.8-64 64v32h-169.6v-32c0-35.2-28.8-64-64-64s-64 28.8-64 64v32h-115.2c-38.4 0-70.4-32-70.4-70.4v-121.6h787.2v121.6c0 38.4-32 70.4-70.4 70.4zM467.2 134.4v412.8c0 19.2-12.8 32-32 32s-32-12.8-32-32v-412.8c0-19.2 12.8-32 32-32s32 16 32 32zM649.6 134.4v412.8c0 19.2-12.8 32-32 32s-32-12.8-32-32v-412.8c0-19.2 12.8-32 32-32s32 16 32 32z" />
<glyph unicode="&#xe913;" glyph-name="enviar_correo" d="M323.2 688c38.4 0 99.2 0 99.2 0s0-16 0-41.6c0-76.8 0-185.6 0-243.2 0 0 0-12.8 16-12.8s124.8 0 150.4 0c25.6 0 19.2 16 19.2 16 0 60.8 0 160 0 240 0 28.8 0 44.8 0 44.8s76.8 0 105.6 0 3.2 25.6 3.2 25.6l-188.8 227.2c0 0-16 19.2-32 3.2-22.4-22.4-182.4-236.8-182.4-236.8s-25.6-22.4 9.6-22.4zM896-64h-758.4c-41.6 0-73.6 32-73.6 73.6v505.6c0 38.4 32 73.6 73.6 73.6h185.6v-76.8h-182.4v-64l377.6-236.8 377.6 236.8v64h-185.6v76.8h185.6c41.6 0 73.6-32 73.6-73.6v-505.6c0-41.6-32-73.6-73.6-73.6zM140.8 12.8h752v348.8l-355.2-230.4c-6.4-3.2-16-6.4-22.4-6.4s-16 0-22.4 6.4l-352 230.4v-348.8z" />
<glyph unicode="&#xe914;" glyph-name="error" d="M569.6 448l185.6 185.6c16 16 16 41.6 0 57.6s-41.6 16-57.6 0l-185.6-185.6-185.6 185.6c-16 12.8-41.6 12.8-57.6 0s-16-41.6 0-57.6l185.6-185.6-185.6-185.6c-16-16-16-41.6 0-57.6 6.4-6.4 19.2-12.8 28.8-12.8s19.2 3.2 28.8 12.8l185.6 185.6 185.6-185.6c6.4-6.4 19.2-12.8 28.8-12.8s19.2 3.2 28.8 12.8c16 16 16 41.6 0 57.6zM512-64c-281.6 0-512 230.4-512 512s230.4 512 512 512c281.6 0 512-230.4 512-512s-230.4-512-512-512z" />
<glyph unicode="&#xe915;" glyph-name="historico" d="M848 208h-89.6v105.6c0 19.2-12.8 35.2-28.8 35.2s-28.8-16-28.8-35.2v-137.6c0-19.2 12.8-35.2 28.8-35.2h121.6c16 0 28.8 16 28.8 35.2-3.2 16-16 32-32 32zM755.2 486.4c-134.4 0-240-124.8-240-278.4 0-89.6 38.4-169.6 96-220.8l-25.6-38.4 140.8-9.6-48 153.6-28.8-44.8c-44.8 38.4-73.6 96-73.6 166.4 0 115.2 80 208 182.4 208s182.4-92.8 182.4-208c0-102.4-64-185.6-147.2-204.8l6.4-73.6c112 22.4 198.4 137.6 198.4 272 0 153.6-108.8 278.4-243.2 278.4zM32 684.8h121.6v-137.6h-121.6v137.6zM32 412.8h121.6v-137.6h-121.6v137.6zM32 960h121.6v-137.6h-121.6v137.6zM297.6 547.2h534.4c32 0 60.8 32 60.8 70.4v0c0 38.4-25.6 70.4-60.8 70.4h-534.4c-32 0-60.8-32-60.8-70.4v0c0-38.4 25.6-70.4 60.8-70.4zM297.6 822.4h534.4c32 0 60.8 32 60.8 70.4v0c-3.2 35.2-28.8 67.2-64 67.2h-531.2c-32 0-60.8-32-60.8-70.4v0c0-38.4 25.6-67.2 60.8-67.2zM476.8 412.8h-179.2c-32 0-60.8-32-60.8-70.4v0c0-38.4 25.6-70.4 60.8-70.4h150.4l28.8 140.8z" />
<glyph unicode="&#xe916;" glyph-name="icono_pagar" d="M710.4 665.6h-387.2c-59.2 0-108.8-48-108.8-108.8v-222.4c0-59.2 48-108.8 108.8-108.8h387.2c59.2 0 108.8 48 108.8 108.8v222.4c-1.6 59.2-49.6 108.8-108.8 108.8zM752 334.4c0-24-19.2-43.2-43.2-43.2h-385.6c-24 0-43.2 19.2-43.2 43.2v222.4c0 24 19.2 43.2 43.2 43.2h387.2c24 0 43.2-19.2 43.2-43.2l-1.6-222.4zM444.8 496c0-32.695-26.505-59.2-59.2-59.2s-59.2 26.505-59.2 59.2c0 32.695 26.505 59.2 59.2 59.2s59.2-26.505 59.2-59.2zM684.8 563.2h-166.4c-14.4 0-25.6-11.2-25.6-25.6s11.2-25.6 25.6-25.6h166.4c14.4 0 25.6 11.2 25.6 25.6s-11.2 25.6-25.6 25.6zM684.8 472h-166.4c-14.4 0-25.6-11.2-25.6-25.6s11.2-25.6 25.6-25.6h166.4c14.4 0 25.6 11.2 25.6 25.6 1.6 12.8-11.2 25.6-25.6 25.6zM684.8 379.2h-332.8c-14.4 0-25.6-11.2-25.6-25.6s11.2-25.6 25.6-25.6h332.8c14.4 0 25.6 11.2 25.6 25.6 1.6 14.4-11.2 25.6-25.6 25.6zM512-30.4c-262.4 0-475.2 212.8-475.2 475.2s212.8 475.2 475.2 475.2c262.4 0 475.2-212.8 475.2-475.2s-212.8-475.2-475.2-475.2zM512 878.4c-238.4 0-433.6-195.2-433.6-433.6s195.2-432 433.6-432 433.6 193.6 433.6 433.6-195.2 432-433.6 432z" />
<glyph unicode="&#xe917;" glyph-name="icono_transferencias" d="M507.2-24c-65.6 0-132.8 14.4-195.2 43.2l17.6 38.4c161.6-73.6 355.2-40 480 86.4 139.2 139.2 164.8 353.6 64 521.6l36.8 22.4c112-187.2 81.6-422.4-70.4-576-89.6-89.6-211.2-136-332.8-136zM366.4-64l-33.6 97.6 96 32-54.4 27.2-97.6-32 33.6-97.6zM104 203.2c-110.4 185.6-81.6 420.8 72 574.4 137.6 137.6 350.4 176 528 94.4l-17.6-38.4c-161.6 73.6-355.2 40-480-86.4-139.2-139.2-166.4-353.6-65.6-521.6l-36.8-22.4zM649.6 953.6l33.6-96-97.6-33.6 56-27.2 96 33.6-33.6 96zM849.6 334.4c3.2-12.8 3.2-25.6-12.8-32-19.2-8-33.6-12.8-56-22.4-12.8-4.8-24-9.6-36.8-14.4s-25.6-9.6-40-16c-57.6-22.4-123.2-46.4-204.8-76.8-17.6-6.4-35.2 3.2-41.6 22.4-12.8 43.2-28.8 84.8-43.2 123.2-6.4 17.6 3.2 33.6 20.8 38.4 41.6 11.2 78.4 20.8 115.2 30.4 35.2 9.6 67.2 16 97.6 22.4 60.8 14.4 99.2 22.4 140.8 28.8 20.8 3.2 27.2-4.8 32-17.6 8-27.2 19.2-57.6 28.8-86.4zM811.2 568c-6.4 11.2-11.2 17.6-32 17.6-57.6 1.6-124.8-3.2-227.2-17.6-51.2-8-105.6-17.6-166.4-33.6-30.4-8-59.2-16-89.6-25.6-32-9.6-60.8-20.8-91.2-32-17.6-6.4-28.8-22.4-25.6-36.8 8-32 16-62.4 25.6-99.2 4.8-16 22.4-22.4 41.6-16 65.6 25.6 136 46.4 200 64 65.6 17.6 120 30.4 171.2 41.6 100.8 22.4 153.6 28.8 208 38.4 12.8 1.6 17.6 9.6 12.8 24l-27.2 75.2zM742.4 692.8c-8 12.8-16 14.4-25.6 16-36.8 6.4-123.2 4.8-195.2-3.2-36.8-3.2-73.6-8-113.6-16s-80-17.6-123.2-30.4c-14.4-4.8-22.4-12.8-17.6-28.8 8-22.4 14.4-41.6 22.4-67.2 6.4-17.6 20.8-17.6 36.8-12.8 48 14.4 92.8 24 136 33.6 44.8 9.6 83.2 14.4 120 19.2 75.2 9.6 139.2 11.2 176 11.2 8 0 14.4 8 8 17.6l-24 60.8z" />
<glyph unicode="&#xe918;" glyph-name="icono-informacion" d="M611.2 716.8v0c0 54.787-44.413 99.2-99.2 99.2v0c-54.787 0-99.2-44.413-99.2-99.2v0c0-54.787 44.413-99.2 99.2-99.2v0c54.787 0 99.2 44.413 99.2 99.2zM569.6 76.8c22.4 0 41.6 19.2 41.6 41.6v364.8c0 22.4-19.2 41.6-41.6 41.6h-115.2c-22.4 0-41.6-19.2-41.6-41.6v-364.8c0-22.4 19.2-41.6 41.6-41.6h115.2zM1024 448c0-282.77-229.23-512-512-512v0c-282.77 0-512 229.23-512 512v0c0 282.77 229.23 512 512 512v0c282.77 0 512-229.23 512-512v0z" />
<glyph unicode="&#xe919;" glyph-name="informacion" d="M560 716.8v0c0 26.51-21.49 48-48 48v0c-26.51 0-48-21.49-48-48v0c0-26.51 21.49-48 48-48v0c26.51 0 48 21.49 48 48zM512 160c22.4 0 41.6 19.2 41.6 41.6v361.6c0 22.4-19.2 41.6-41.6 41.6s-41.6-19.2-41.6-41.6v-361.6c0-22.4 19.2-41.6 41.6-41.6zM512-64c-281.6 0-512 230.4-512 512s230.4 512 512 512c281.6 0 512-230.4 512-512s-230.4-512-512-512z" />
<glyph unicode="&#xe91a;" glyph-name="pagar" d="M512-64c-282.77 0-512 229.23-512 512s229.23 512 512 512c282.77 0 512-229.23 512-512v0c-0.384-282.615-229.384-511.616-511.963-512h-0.037zM512 915.42c-257.403 0-466.069-208.666-466.069-466.069s208.666-466.069 466.069-466.069c257.403 0 466.069 208.666 466.069 466.069v0c-0.959 256.744-209.217 464.528-466.050 464.718h-0.018zM572.454 352.084c-55.957 0-101.319-45.362-101.319-101.319s45.362-101.319 101.319-101.319v0c55.957 0 101.319 45.362 101.319 101.319s-45.362 101.319-101.319 101.319v0zM599.81 211.251c-3.923-5.146-9.369-8.95-15.661-10.755l-0.212-0.052c-2.172-0.457-3.778-2.357-3.778-4.632 0-0.273 0.023-0.54 0.067-0.8l-0.004 0.028c0-3.040 0-6.079 0-9.119s0-4.053-3.715-4.053h-9.119c-2.702 0-3.715 0-3.715 4.391v6.417c0 4.728 0 5.066-4.728 5.741-6.031 0.798-11.499 2.46-16.541 4.87l0.33-0.142c-4.053 2.026-4.391 3.040-3.377 7.43s1.689 6.755 2.702 9.794c1.013 3.040 2.026 4.391 5.404 2.364 5.173-2.888 11.225-4.918 17.658-5.717l0.242-0.025c1.769-0.549 3.803-0.866 5.91-0.866s4.141 0.316 6.056 0.905l-0.146-0.039c3.546 1.526 5.983 4.989 5.983 9.022 0 3.21-1.545 6.060-3.931 7.846l-0.026 0.018c-1.93 1.644-4.163 3.010-6.592 3.994l-0.163 0.058c-7.141 2.819-13.143 5.767-18.875 9.126l0.637-0.345c-8.752 4.77-14.591 13.902-14.591 24.398 0 0.684 0.025 1.363 0.074 2.035l-0.005-0.090c0.142 12.591 8.367 23.223 19.723 26.961l0.203 0.058c4.728 2.026 5.066 1.689 5.066 7.092v5.404c0 4.053 0 4.728 4.728 4.728h3.377c8.106 0 8.106 0 8.106-8.781s0-6.079 5.741-7.092c4.82-0.856 9.126-2.264 13.139-4.184l-0.305 0.132c1.58-0.577 2.688-2.067 2.688-3.816 0-0.574-0.119-1.119-0.334-1.614l0.010 0.026c0-3.715-2.026-7.43-3.040-11.145s-2.026-4.053-5.404-2.364c-5.186 2.811-11.355 4.463-17.909 4.463-0.828 0-1.651-0.026-2.466-0.078l0.111 0.006c-0.812 0.154-1.747 0.242-2.702 0.242s-1.89-0.088-2.796-0.257l0.094 0.014c-3.138-1.279-5.309-4.306-5.309-7.84 0-2.711 1.278-5.123 3.264-6.668l0.019-0.014c2.537-2.095 5.427-3.903 8.54-5.307l0.241-0.097c6.27-2.575 11.488-5.178 16.496-8.104l-0.623 0.336c9.052-5.618 14.99-15.504 14.99-26.776 0-6.656-2.070-12.828-5.602-17.908l0.068 0.103zM755.842 570.259h-367.113c-20.647-0.552-37.175-17.421-37.175-38.151 0-0.48 0.009-0.957 0.026-1.432l-0.002 0.069v-275.251c-0.001-0.104-0.002-0.228-0.002-0.351 0-20.721 16.515-37.586 37.1-38.149l0.052-0.001h49.309c-1.077 6.79-1.692 14.619-1.692 22.592 0 0.369 0.001 0.738 0.004 1.106v-0.057c0.054 9.345 0.911 18.452 2.508 27.302l-0.144-0.959h-39.852v131.715h347.187v-131.715h-39.852c1.453-7.891 2.311-16.998 2.364-26.296v-0.047c0.002-0.312 0.004-0.681 0.004-1.050 0-7.973-0.615-15.802-1.801-23.442l0.109 0.851h49.309c20.934 0.188 37.832 17.202 37.832 38.162 0 0.238-0.002 0.476-0.007 0.712l0.001-0.036v275.251c0.009 0.302 0.013 0.657 0.013 1.013 0 21.077-17.086 38.164-38.164 38.164-0.005 0-0.009 0-0.014 0h0.001zM746.047 479.071h-347.187v41.879h347.187zM676.813 595.251c0.020 0 0.045 0 0.069 0 4.663 0 8.443 3.78 8.443 8.443 0 3.468-2.091 6.447-5.080 7.747l-0.055 0.021-303.958 142.522c-4.379 2.057-9.51 3.258-14.922 3.258-15.112 0-28.036-9.363-33.289-22.604l-0.085-0.242-105.034-252.285c-2.061-4.653-3.261-10.080-3.261-15.788 0-15.437 8.777-28.824 21.613-35.443l0.223-0.105 61.129-28.032c1.3-0.535 2.81-0.846 4.392-0.846 6.528 0 11.821 5.292 11.821 11.821 0 0.060 0 0.12-0.001 0.18v-0.009 107.061c-0.019 0.615-0.029 1.338-0.029 2.064 0 39.095 31.041 70.94 69.821 72.234l0.119 0.003h287.747z" />
<glyph unicode="&#xe91b;" glyph-name="checkbox_active_pru" d="M403.2 204.8c22.4 0 41.6 9.6 54.4 28.8l352 361.6c28.8 28.8 28.8 80-3.2 108.8-28.8 28.8-80 28.8-108.8-3.2l-297.6-307.2-96 89.6c-28.8 28.8-80 28.8-108.8-3.2-28.8-28.8-28.8-80 3.2-108.8l150.4-144c16-16 35.2-22.4 54.4-22.4zM1024-64h-1024v1024h1024z" />
<glyph unicode="&#xe91c;" glyph-name="paginador-adelante-hover" d="M492.458 959.621c-273.981-11.214-491.847-236.044-491.847-511.759 0-282.529 228.767-511.626 511.171-512.161h0.051c0.2 0 0.437 0 0.674 0 282.92 0 512.293 229.256 512.485 512.131v0.018c0 0.004 0 0.009 0 0.014 0 282.859-229.303 512.162-512.162 512.162-7.165 0-14.295-0.147-21.388-0.438l1.015 0.033zM411.991 638.132l302.745-190.281-302.745-190.344v380.625z" />
<glyph unicode="&#xe91d;" glyph-name="paginador-atras-hover" d="M511.833 960c-282.639-0.371-511.642-229.485-511.833-512.131v-0.018c0-0.004 0-0.008 0-0.013 0-282.859 229.303-512.162 512.162-512.162s512.162 229.303 512.162 512.162c0 282.859-229.303 512.162-512.162 512.162-0.115 0-0.231 0-0.346 0h0.018zM611.991 638.132v-380.625l-302.43 190.344 302.43 190.281z" />
<glyph unicode="&#xe91e;" glyph-name="indicador-mensajes" horiz-adv-x="1056" d="M1039.754 956.849c-31.508-6.302-50.412-12.603-78.769-18.905-122.88-28.357-252.062-56.714-396.997-94.523-148.086-37.809-299.323-72.468-469.465-122.88-69.317-22.055-107.126-88.222-81.92-160.689 59.865-157.538 122.88-327.68 176.443-504.123 25.206-75.618 94.523-113.428 166.991-91.372 264.665 97.674 494.671 182.745 683.717 258.363v734.129z" />
<glyph unicode="&#xe91f;" glyph-name="pagar_only" d="M771.2 688c16 0 19.2 19.2 6.4 25.6l-512 240c-32 16-67.2 0-80-32l-179.2-425.6c-12.8-32 0-70.4 32-86.4l102.4-48c12.8-6.4 28.8 3.2 28.8 19.2v179.2c0 70.4 54.4 124.8 118.4 124.8l483.2 3.2zM902.4 646.4h-617.6c-35.2 0-64-28.8-64-67.2v-464c0-35.2 28.8-67.2 64-67.2h83.2c-3.2 12.8-3.2 25.6-3.2 38.4 0 16 0 28.8 3.2 44.8h-67.2v220.8h585.6v-220.8h-67.2c3.2-16 3.2-28.8 3.2-44.8 0-12.8 0-25.6-3.2-38.4h83.2c35.2 0 64 28.8 64 67.2v464c0 35.2-28.8 67.2-64 67.2zM886.4 492.8h-585.6v70.4h585.6v-70.4zM595.2 275.2c-89.6 0-160-76.8-160-169.6s70.4-169.6 160-169.6 160 76.8 160 169.6-73.6 169.6-160 169.6zM640 38.4c-6.4-9.6-16-16-25.6-19.2-3.2 0-6.4-3.2-6.4-9.6s0-9.6 0-16c0-3.2-3.2-6.4-6.4-6.4-6.4 0-9.6 0-16 0-3.2 0-6.4 3.2-6.4 6.4s0 6.4 0 9.6c0 9.6 0 9.6-6.4 9.6-9.6 0-19.2 3.2-25.6 9.6-6.4 3.2-6.4 6.4-6.4 12.8s3.2 12.8 3.2 16c3.2 6.4 3.2 6.4 9.6 3.2 9.6-6.4 19.2-9.6 28.8-9.6 6.4 0 12.8 0 19.2 3.2 12.8 6.4 12.8 19.2 3.2 28.8-3.2 3.2-6.4 6.4-12.8 6.4-9.6 3.2-22.4 9.6-32 16-16 9.6-25.6 22.4-25.6 44.8s12.8 38.4 35.2 44.8c9.6 3.2 9.6 3.2 9.6 12.8 0 3.2 0 6.4 0 9.6 0 6.4 0 9.6 6.4 9.6 3.2 0 3.2 0 6.4 0 12.8 0 12.8 0 12.8-16 0-9.6 0-9.6 9.6-12.8 6.4 0 16-3.2 22.4-6.4 3.2-3.2 6.4-3.2 3.2-9.6 3.2-3.2 0-9.6 0-16-3.2-6.4-3.2-6.4-9.6-3.2-9.6 6.4-22.4 6.4-35.2 6.4-3.2 0-6.4 0-9.6-3.2-9.6-3.2-12.8-16-3.2-25.6 3.2-3.2 9.6-6.4 16-9.6 9.6-3.2 19.2-6.4 25.6-12.8 28.8-12.8 35.2-48 16-73.6z" />
<glyph unicode="&#xe920;" glyph-name="paginador-anterior" d="M512.162 960c282.859 0 512.161-229.303 512.161-512.162s-229.303-512.162-512.162-512.162c-282.859 0-512.162 229.303-512.162 512.162 0 0.113 0 0.227 0 0.34v-0.017c0.368 282.646 229.49 511.655 512.144 511.838h0.018zM512.162-18.115c257.2 0.184 465.631 208.728 465.631 465.954 0 257.339-208.615 465.954-465.954 465.954-257.225 0-465.769-208.43-465.954-465.613v-0.018c0.184-257.444 208.834-466.093 466.26-466.277h0.017zM612.009 638.162v-380.648l-302.45 190.324 302.45 190.324z" />
<glyph unicode="&#xe921;" glyph-name="paginador-siguiente" d="M512.162-64c-0.096 0-0.21 0-0.323 0-282.859 0-512.162 229.303-512.162 512.162s229.303 512.162 512.162 512.162c282.859 0 512.162-229.303 512.162-512.162v0c-0.184-282.672-229.193-511.794-511.804-512.162h-0.035zM512.162 914.115c-257.339 0-465.954-208.615-465.954-465.954s208.615-465.954 465.954-465.954c257.339 0 465.954 208.615 465.954 465.954v0c-0.367 257.191-208.763 465.587-465.919 465.954h-0.035zM411.991 257.515v380.648l302.773-190.324-302.773-190.324z" />
<glyph unicode="&#xe922;" glyph-name="programar" d="M352 576h128v-128h-128v128zM160 768c19.2 0 32 12.8 32 32v128c0 19.2-12.8 32-32 32s-32-12.8-32-32v-128c0-19.2 12.8-32 32-32zM672 768c19.2 0 32 12.8 32 32v128c0 19.2-12.8 32-32 32s-32-12.8-32-32v-128c0-19.2 12.8-32 32-32zM160 384h128v-128h-128v128zM160 204.8h128v-128h-128v128zM160 576h128v-128h-128v128zM512 6.4h-441.6c-3.2 0-6.4 3.2-6.4 6.4v627.2h704v-131.2c22.4 0 44.8-3.2 64-6.4v259.2c0 38.4-32 70.4-70.4 70.4h-25.6v-32c0-35.2-28.8-64-64-64s-64 28.8-64 64v32h-384v-32c0-35.2-28.8-64-64-64s-64 28.8-64 64v32h-25.6c-38.4 0-70.4-32-70.4-70.4v-748.8c0-38.4 32-70.4 70.4-70.4h505.6c-25.6 19.2-44.8 38.4-64 64zM672 492.8v83.2h-128v-128h38.4c25.6 19.2 57.6 35.2 89.6 44.8zM480 323.2v60.8h-128v-128h105.6c6.4 22.4 12.8 44.8 22.4 67.2zM451.2 192c0 6.4 0 9.6 0 12.8h-99.2v-128h121.6c-12.8 35.2-22.4 73.6-22.4 115.2zM1024 192c0-140.8-115.2-256-256-256s-256 115.2-256 256c0 140.8 115.2 256 256 256s256-115.2 256-256zM960 192c0 105.6-86.4 192-192 192s-192-86.4-192-192c0-105.6 86.4-192 192-192s192 86.4 192 192zM864 192h-96v96c0 19.2-12.8 32-32 32s-32-12.8-32-32v-128c0-19.2 12.8-32 32-32h128c19.2 0 32 12.8 32 32s-12.8 32-32 32z" />
<glyph unicode="&#xe923;" glyph-name="icono_puntos" d="M512-64c-281.6 0-512 230.4-512 512s230.4 512 512 512 512-230.4 512-512-230.4-512-512-512zM512 915.2c-256 0-467.2-211.2-467.2-467.2s211.2-467.2 467.2-467.2 467.2 211.2 467.2 467.2-211.2 467.2-467.2 467.2zM512 812.8c-28.8 0-54.4-12.8-73.6-32s-32-48-32-73.6v-64h-96c-16 0-28.8-12.8-28.8-25.6l-41.6-406.4c-3.2-16 12.8-32 28.8-32h489.6c16 0 32 16 28.8 32l-41.6 403.2c0 16-12.8 25.6-28.8 25.6h-96v64c0 28.8-12.8 54.4-32 73.6s-48 35.2-76.8 35.2zM512 768c12.8 0 32-6.4 44.8-19.2s19.2-28.8 19.2-41.6v-64h-128v64c0 12.8 6.4 32 19.2 44.8 12.8 9.6 32 16 44.8 16z" />
<glyph unicode="&#xe924;" glyph-name="radio" d="M512-64c-281.6 0-512 230.4-512 512s230.4 512 512 512 512-230.4 512-512-230.4-512-512-512zM512 915.2c-256 0-467.2-211.2-467.2-467.2s211.2-467.2 467.2-467.2 467.2 211.2 467.2 467.2-211.2 467.2-467.2 467.2z" />
<glyph unicode="&#xe925;" d="M1024 448c0-282.77-229.23-512-512-512s-512 229.23-512 512c0 282.77 229.23 512 512 512s512-229.23 512-512z" />
<glyph unicode="&#xe926;" glyph-name="icono_salir" d="M992 416c16 16 16 44.8 0 60.8l-272 272c-16 16-41.6 16-57.6 0s-16-41.6 0-57.6l201.6-201.6h-460.8c-22.4 0-41.6-19.2-41.6-41.6s19.2-41.6 41.6-41.6h460.8l-201.6-201.6c-16-16-16-41.6 0-57.6 9.6-9.6 19.2-12.8 28.8-12.8s22.4 3.2 28.8 12.8l272 268.8zM777.6-64h-710.4c-38.4 0-67.2 28.8-67.2 67.2v889.6c0 38.4 28.8 67.2 67.2 67.2h710.4c12.8 0 22.4-9.6 22.4-22.4s-9.6-22.4-22.4-22.4h-710.4c-12.8 0-22.4-9.6-22.4-22.4v-892.8c0-12.8 9.6-22.4 22.4-22.4h710.4c12.8 0 22.4-9.6 22.4-22.4 0-9.6-9.6-19.2-22.4-19.2z" />
<glyph unicode="&#xe927;" glyph-name="icono_seguridad" d="M512-64c-281.6 0-512 230.4-512 512s230.4 512 512 512 512-230.4 512-512-230.4-512-512-512zM512 915.2c-256 0-467.2-211.2-467.2-467.2s211.2-467.2 467.2-467.2 467.2 211.2 467.2 467.2-211.2 467.2-467.2 467.2zM329.6 592v-48h-28.8c-16 0-28.8-12.8-28.8-25.6v-332.8c0-16 12.8-25.6 28.8-25.6h435.2c16 0 28.8 12.8 28.8 25.6v332.8c0 16-12.8 25.6-28.8 25.6h-28.8v48c0 102.4-86.4 185.6-188.8 185.6-105.6 3.2-188.8-83.2-188.8-185.6zM550.4 355.2v-99.2h-67.2v102.4c-6.4 6.4-9.6 16-9.6 28.8 0 25.6 19.2 44.8 44.8 44.8s44.8-19.2 44.8-44.8c-3.2-16-6.4-25.6-12.8-32zM633.6 592v-48h-236.8v48c0 64 54.4 115.2 118.4 115.2 67.2 3.2 118.4-51.2 118.4-115.2z" />
<glyph unicode="&#xe928;" glyph-name="select_bottom" d="M512 678.4l512-742.4h-1024z" />
<glyph unicode="&#xe929;" glyph-name="select_top" d="M512 217.6l-512 742.4h1024z" />
<glyph unicode="&#xe92a;" d="M986.112 473.6c0 258.048-208.896 465.92-465.92 465.92s-465.92-207.872-465.92-465.92c0-257.024 208.896-465.92 465.92-465.92 257.024 1.024 465.92 208.896 465.92 465.92z" />
<glyph unicode="&#xe92b;" d="M791.552 398.848v0c0 1.024-25.6 69.632-25.6 69.632-1.024 4.096-3.072 7.168-5.12 9.216 9.216 2.048 17.408 8.192 21.504 15.36 2.048 4.096 4.096 9.216 4.096 15.36 0 4.096-1.024 9.216-3.072 15.36l-22.528 57.344c-6.144 12.288-14.336 22.528-31.744 26.624 3.072 9.216 2.048 18.432-3.072 27.648l2.048-3.072-20.48 46.080-1.024 1.024c-11.264 19.456-25.6 21.504-34.816 22.528-30.72 5.12-99.328 4.096-154.624-2.048-26.624-2.048-54.272-6.144-89.088-12.288-25.6-5.12-59.392-12.288-96.256-23.552-13.312-4.096-21.504-10.24-26.624-20.48-2.048-4.096-4.096-9.216-4.096-15.36 0-4.096 1.024-9.216 2.048-14.336l17.408-51.2c1.024-4.096 5.12-11.264 11.264-16.384-16.384-6.144-65.536-22.528-65.536-22.528-20.48-8.192-33.792-25.6-33.792-44.032 0-3.072 0-5.12 1.024-8.192 0-1.024 19.456-76.8 19.456-76.8 3.072-11.264 11.264-20.48 21.504-25.6 11.264-6.144 25.6-6.144 38.912-1.024 30.72 11.264 63.488 22.528 97.28 32.768-2.048-8.192-2.048-18.432 1.024-27.648 0 0 32.768-93.184 32.768-94.208 8.192-25.6 34.816-38.912 59.392-29.696l161.792 59.392 78.848 30.72 24.576 9.216c20.48 8.192 28.672 27.648 22.528 50.176z" />
<glyph unicode="&#xe92c;" d="M771.072 392.704c3.072-10.24 2.048-19.456-10.24-24.576-14.336-6.144-25.6-10.24-43.008-17.408-9.216-3.072-18.432-7.168-28.672-11.264s-20.48-8.192-31.744-12.288c-44.032-17.408-95.232-35.84-157.696-59.392-13.312-4.096-27.648 2.048-31.744 17.408-10.24 32.768-21.504 64.512-33.792 94.208-5.12 13.312 2.048 25.6 15.36 29.696 31.744 9.216 60.416 16.384 88.064 22.528 27.648 7.168 52.224 12.288 74.752 17.408 46.080 10.24 76.8 17.408 108.544 22.528 15.36 3.072 20.48-4.096 24.576-13.312 10.24-19.456 18.432-41.984 25.6-65.536z" />
<glyph unicode="&#xe92d;" d="M741.376 573.952c-4.096 8.192-8.192 13.312-24.576 14.336-44.032 1.024-96.256-2.048-174.080-14.336-38.912-6.144-81.92-14.336-126.976-25.6-23.552-6.144-46.080-12.288-69.632-19.456-24.576-7.168-47.104-15.36-69.632-24.576-13.312-5.12-21.504-17.408-19.456-27.648 6.144-24.576 12.288-48.128 19.456-76.8 3.072-12.288 17.408-17.408 31.744-12.288 51.2 19.456 104.448 35.84 153.6 49.152 50.176 13.312 93.184 23.552 132.096 31.744 77.824 17.408 118.784 22.528 159.744 29.696 9.216 2.048 13.312 8.192 9.216 18.432l-21.504 57.344z" />
<glyph unicode="&#xe92e;" d="M688.128 669.184c-6.144 10.24-12.288 11.264-19.456 12.288-27.648 4.096-94.208 4.096-149.504-2.048-27.648-2.048-56.32-6.144-87.040-12.288s-61.44-13.312-94.208-22.528c-11.264-3.072-17.408-9.216-13.312-22.528 6.144-17.408 11.264-31.744 17.408-51.2 5.12-13.312 16.384-13.312 27.648-9.216 35.84 10.24 70.656 18.432 104.448 25.6s63.488 11.264 92.16 15.36c57.344 7.168 106.496 8.192 135.168 9.216 6.144 0 10.24 6.144 6.144 13.312l-19.456 44.032z" />
<glyph unicode="&#xe92f;" d="M198.656 399.872v0c13.312-6.144 22.528-16.384 23.552-28.672 0-5.12 0-17.408 0-17.408l9.216 16.384c12.288 20.48 38.912 27.648 59.392 15.36l5.12-3.072c18.432-10.24 24.576-33.792 14.336-52.224l2.048 3.072c12.288 20.48 38.912 27.648 59.392 15.36l5.12-3.072c18.432-10.24 24.576-33.792 14.336-52.224l65.536 113.664c12.288 20.48 38.912 27.648 59.392 15.36h1.024c20.48-12.288 27.648-38.912 15.36-59.392l-145.408-250.88c-2.048-4.096 1.024-8.192 5.12-7.168l69.632 18.432c23.552 6.144 48.128-8.192 54.272-31.744l3.072-12.288c6.144-23.552-8.192-48.128-31.744-54.272l-194.56-51.2c-9.216-2.048-18.432-1.024-26.624 3.072v0l-2.048 1.024c-9.216 5.12-22.528 2.048-27.648-7.168l-2.048-4.096c-6.144-11.264-21.504-13.312-34.816-6.144l-146.432 84.992c-13.312 7.168-18.432 22.528-11.264 33.792l14.336 25.6c1.024 1.024 1.024 3.072 0 5.12-8.192 15.36-9.216 33.792-2.048 51.2l95.232 220.16c7.168 18.432 29.696 26.624 49.152 18.432z" />
<glyph unicode="&#xe930;" d="M214.016-58.88c-7.168 0-15.36 2.048-22.528 6.144l-146.432 84.992c-19.456 11.264-27.648 35.84-17.408 53.248l12.288 20.48c-8.192 18.432-8.192 39.936 0 59.392l95.232 220.16c11.264 26.624 43.008 38.912 69.632 27.648 0 0 0 0 0 0h1.024c10.24-5.12 19.456-12.288 24.576-21.504 7.168 6.144 15.36 11.264 24.576 13.312 15.36 4.096 30.72 2.048 44.032-6.144l5.12-3.072c11.264-7.168 20.48-17.408 23.552-29.696 2.048 1.024 5.12 2.048 7.168 2.048 15.36 4.096 30.72 2.048 44.032-6.144l5.12-3.072c7.168-4.096 13.312-10.24 17.408-16.384l41.984 71.68c16.384 27.648 52.224 36.864 79.872 21.504 28.672-16.384 37.888-52.224 21.504-79.872l-133.12-230.4 46.080 12.288c31.744 8.192 63.488-10.24 71.68-41.984l3.072-12.288c8.192-31.744-10.24-63.488-41.984-71.68l-194.56-51.2c-11.264-3.072-23.552-2.048-34.816 2.048-1.024 0-3.072 1.024-4.096 1.024l-2.048 1.024c-3.072 2.048-6.144 1.024-7.168-2.048l-2.048-4.096c-6.144-11.264-18.432-17.408-31.744-17.408zM193.536 386.56c-3.072 1.024-6.144 2.048-9.216 2.048-9.216 0-18.432-5.12-21.504-14.336l-96.256-220.16c-5.12-12.288-5.12-26.624 2.048-37.888 3.072-6.144 3.072-13.312 0-19.456l-14.336-25.6c-2.048-3.072 0-9.216 6.144-13.312l146.432-84.992c6.144-3.072 12.288-2.048 14.336 1.024l2.048 4.096c9.216 16.384 30.72 22.528 47.104 13.312 1.024 0 1.024 0 2.048-1.024 4.096-2.048 10.24-4.096 17.408-2.048l194.56 51.2c15.36 4.096 25.6 20.48 21.504 35.84l-4.096 13.312c-4.096 15.36-20.48 25.6-35.84 21.504l-69.632-18.432c-8.192-2.048-15.36 1.024-20.48 7.168s-5.12 15.36-1.024 21.504l146.432 250.88c8.192 13.312 3.072 31.744-10.24 38.912-14.336 8.192-31.744 4.096-39.936-10.24l-65.536-113.664c0 0 0 0 0 0-4.096-7.168-13.312-9.216-20.48-5.12s-9.216 13.312-5.12 20.48v0c3.072 5.12 4.096 12.288 2.048 18.432s-5.12 11.264-11.264 14.336l-5.12 3.072c-6.144 4.096-14.336 5.12-21.504 3.072s-13.312-7.168-17.408-13.312l-2.048-3.072c-4.096-7.168-13.312-9.216-20.48-5.12s-9.216 13.312-5.12 20.48c0 0 0 0 0 0v0c3.072 5.12 4.096 12.288 2.048 18.432s-5.12 11.264-11.264 14.336l-5.12 3.072c-6.144 4.096-14.336 5.12-21.504 3.072s-13.312-7.168-17.408-13.312l-10.24-18.432c-3.072-6.144-10.24-8.192-16.384-7.168-6.144 2.048-11.264 7.168-11.264 14.336 0 0 0 10.24 0 15.36-1.024 7.168-6.144 13.312-14.336 17.408z" />
<glyph unicode="&#xe931;" d="M520.192-6.656c-265.216 0-480.256 215.040-480.256 480.256s215.040 480.256 480.256 480.256 480.256-215.040 480.256-480.256c0-264.192-216.064-480.256-480.256-480.256zM520.192 925.184c-248.832 0-451.584-202.752-451.584-451.584s202.752-451.584 451.584-451.584 451.584 202.752 451.584 451.584c-1.024 248.832-202.752 451.584-451.584 451.584z" />
<glyph unicode="&#xe932;" d="M771.072 392.704c3.072-10.24 2.048-19.456-10.24-24.576-14.336-6.144-25.6-10.24-43.008-17.408-9.216-3.072-18.432-7.168-28.672-11.264s-20.48-8.192-31.744-12.288c-44.032-17.408-95.232-35.84-157.696-59.392-13.312-4.096-27.648 2.048-31.744 17.408-10.24 32.768-21.504 64.512-33.792 94.208-5.12 13.312 2.048 25.6 15.36 29.696 31.744 9.216 60.416 16.384 88.064 22.528 27.648 7.168 52.224 12.288 74.752 17.408 46.080 10.24 76.8 17.408 108.544 22.528 15.36 3.072 20.48-4.096 24.576-13.312 10.24-19.456 18.432-41.984 25.6-65.536z" />
<glyph unicode="&#xe933;" d="M741.376 573.952c-4.096 8.192-8.192 13.312-24.576 14.336-44.032 1.024-96.256-2.048-174.080-14.336-38.912-6.144-81.92-14.336-126.976-25.6-23.552-6.144-46.080-12.288-69.632-19.456-24.576-7.168-47.104-15.36-69.632-24.576-13.312-5.12-21.504-17.408-19.456-27.648 6.144-24.576 12.288-48.128 19.456-76.8 3.072-12.288 17.408-17.408 31.744-12.288 51.2 19.456 104.448 35.84 153.6 49.152 50.176 13.312 93.184 23.552 132.096 31.744 77.824 17.408 118.784 22.528 159.744 29.696 9.216 2.048 13.312 8.192 9.216 18.432l-21.504 57.344z" />
<glyph unicode="&#xe934;" d="M688.128 669.184c-6.144 10.24-12.288 11.264-19.456 12.288-27.648 4.096-94.208 4.096-149.504-2.048-27.648-2.048-56.32-6.144-87.040-12.288s-61.44-13.312-94.208-22.528c-11.264-3.072-17.408-9.216-13.312-22.528 6.144-17.408 11.264-31.744 17.408-51.2 5.12-13.312 16.384-13.312 27.648-9.216 35.84 10.24 70.656 18.432 104.448 25.6s63.488 11.264 92.16 15.36c57.344 7.168 106.496 8.192 135.168 9.216 6.144 0 10.24 6.144 6.144 13.312l-19.456 44.032z" />
<glyph unicode="&#xe935;" d="M198.656 399.872v0c13.312-6.144 22.528-16.384 23.552-28.672 0-5.12 0-17.408 0-17.408l9.216 16.384c12.288 20.48 38.912 27.648 59.392 15.36l5.12-3.072c18.432-10.24 24.576-33.792 14.336-52.224l2.048 3.072c12.288 20.48 38.912 27.648 59.392 15.36l5.12-3.072c18.432-10.24 24.576-33.792 14.336-52.224l65.536 113.664c12.288 20.48 38.912 27.648 59.392 15.36h1.024c20.48-12.288 27.648-38.912 15.36-59.392l-145.408-250.88c-2.048-4.096 1.024-8.192 5.12-7.168l69.632 18.432c23.552 6.144 48.128-8.192 54.272-31.744l3.072-12.288c6.144-23.552-8.192-48.128-31.744-54.272l-194.56-51.2c-9.216-2.048-18.432-1.024-26.624 3.072v0l-2.048 1.024c-9.216 5.12-22.528 2.048-27.648-7.168l-2.048-4.096c-6.144-11.264-21.504-13.312-34.816-6.144l-146.432 84.992c-13.312 7.168-18.432 22.528-11.264 33.792l14.336 25.6c1.024 1.024 1.024 3.072 0 5.12-8.192 15.36-9.216 33.792-2.048 51.2l95.232 220.16c7.168 18.432 29.696 26.624 49.152 18.432z" />
<glyph unicode="&#xe936;" d="M214.016-58.88c-7.168 0-15.36 2.048-22.528 6.144l-146.432 84.992c-19.456 11.264-27.648 35.84-17.408 53.248l12.288 20.48c-8.192 18.432-8.192 39.936 0 59.392l95.232 220.16c11.264 26.624 43.008 38.912 69.632 27.648v0h1.024c10.24-5.12 19.456-12.288 24.576-21.504 7.168 6.144 15.36 11.264 24.576 13.312 15.36 4.096 30.72 2.048 44.032-6.144l5.12-3.072c11.264-7.168 20.48-17.408 23.552-29.696 2.048 1.024 5.12 2.048 7.168 2.048 15.36 4.096 30.72 2.048 44.032-6.144l5.12-3.072c7.168-4.096 13.312-10.24 17.408-16.384l41.984 71.68c16.384 27.648 52.224 36.864 79.872 21.504 28.672-16.384 37.888-52.224 21.504-79.872l-133.12-230.4 46.080 12.288c31.744 8.192 63.488-10.24 71.68-41.984l3.072-12.288c8.192-31.744-10.24-63.488-41.984-71.68l-194.56-51.2c-11.264-3.072-23.552-2.048-34.816 2.048-1.024 0-3.072 1.024-4.096 1.024l-2.048 1.024c-3.072 2.048-6.144 1.024-7.168-2.048l-2.048-4.096c-6.144-11.264-18.432-17.408-31.744-17.408zM193.536 386.56c-3.072 1.024-6.144 2.048-9.216 2.048-9.216 0-18.432-5.12-21.504-14.336l-96.256-220.16c-5.12-12.288-5.12-26.624 2.048-37.888 3.072-6.144 3.072-13.312 0-19.456l-14.336-25.6c-2.048-3.072 0-9.216 6.144-13.312l146.432-84.992c6.144-3.072 12.288-2.048 14.336 1.024l2.048 4.096c9.216 16.384 30.72 22.528 47.104 13.312 1.024 0 1.024 0 2.048-1.024 4.096-2.048 10.24-4.096 17.408-2.048l194.56 51.2c15.36 4.096 25.6 20.48 21.504 35.84l-4.096 13.312c-4.096 15.36-20.48 25.6-35.84 21.504l-69.632-18.432c-8.192-2.048-15.36 1.024-20.48 7.168s-5.12 15.36-1.024 21.504l146.432 250.88c8.192 13.312 3.072 31.744-10.24 38.912-14.336 8.192-31.744 4.096-39.936-10.24l-65.536-113.664c-4.096-7.168-13.312-9.216-20.48-5.12s-9.216 13.312-5.12 20.48v0c3.072 5.12 4.096 12.288 2.048 18.432s-5.12 11.264-11.264 14.336l-5.12 3.072c-6.144 4.096-14.336 5.12-21.504 3.072s-13.312-7.168-17.408-13.312l-2.048-3.072c-4.096-7.168-13.312-9.216-20.48-5.12s-9.216 13.312-5.12 20.48v0 0c3.072 5.12 4.096 12.288 2.048 18.432s-5.12 11.264-11.264 14.336l-5.12 3.072c-6.144 4.096-14.336 5.12-21.504 3.072s-13.312-7.168-17.408-13.312l-10.24-18.432c-3.072-6.144-10.24-8.192-16.384-7.168-6.144 2.048-11.264 7.168-11.264 14.336 0 0 0 10.24 0 15.36-1.024 6.144-6.144 13.312-13.312 16.384z" />
<glyph unicode="&#xe937;" d="M512-64c-281.6 0-512 230.4-512 512s230.4 512 512 512 512-230.4 512-512-230.4-512-512-512zM512 915.2c-256 0-467.2-211.2-467.2-467.2s211.2-467.2 467.2-467.2 467.2 211.2 467.2 467.2-211.2 467.2-467.2 467.2z" />
<glyph unicode="&#xe938;" glyph-name="ver_extractos" d="M512-64c-282.77 0-512 229.23-512 512s229.23 512 512 512c282.77 0 512-229.23 512-512v0c-0.384-282.615-229.384-511.616-511.963-512h-0.037zM512 915.42c-257.403 0-466.069-208.666-466.069-466.069s208.666-466.069 466.069-466.069c257.403 0 466.069 208.666 466.069 466.069v0c-0.959 256.744-209.217 464.528-466.050 464.718h-0.018zM372.855 757.361v-61.129h35.462v26.005h277.277v-55.726h58.427v-401.224h-15.536v-35.124h50.66v454.248l-75.652 72.95zM304.296 676.644v-527.198h405.277v453.91l-74.639 73.288zM675.124 183.219h-335.704v458.301h277.277v-55.726h58.427zM611.968 273.393h-217.499c-7.834 0-14.185-6.351-14.185-14.185s6.351-14.185 14.185-14.185h217.499c7.834 0 14.185 6.351 14.185 14.185s-6.351 14.185-14.185 14.185v0zM616.021 336.549h-217.499c-7.834 0-14.185-6.351-14.185-14.185s6.351-14.185 14.185-14.185h217.499c7.834 0 14.185 6.351 14.185 14.185s-6.351 14.185-14.185 14.185v0zM616.021 403.42h-217.499c-7.834 0-14.185-6.351-14.185-14.185s6.351-14.185 14.185-14.185h217.499c7.834 0 14.185 6.351 14.185 14.185s-6.351 14.185-14.185 14.185v0zM616.021 465.224h-217.499c-7.834 0-14.185-6.351-14.185-14.185s6.351-14.185 14.185-14.185v0h217.499c7.834 0 14.185 6.351 14.185 14.185s-6.351 14.185-14.185 14.185v0zM398.522 532.095c-7.834 0-14.185-6.351-14.185-14.185s6.351-14.185 14.185-14.185h217.499c7.834 0 14.185 6.351 14.185 14.185s-6.351 14.185-14.185 14.185v0z" />
<glyph unicode="&#xe939;" glyph-name="icono_visitanos" d="M512-64c-281.6 0-512 230.4-512 512s230.4 512 512 512 512-230.4 512-512-230.4-512-512-512zM512 915.2c-256 0-467.2-211.2-467.2-467.2s211.2-467.2 467.2-467.2 467.2 211.2 467.2 467.2-211.2 467.2-467.2 467.2zM761.6 508.8c0 147.2-128 265.6-281.6 249.6-108.8-12.8-198.4-99.2-217.6-208-9.6-60.8 3.2-121.6 32-169.6l185.6-252.8c16-19.2 44.8-19.2 60.8 0 0 0 176 240 179.2 246.4v0 0c25.6 35.2 41.6 83.2 41.6 134.4zM512 409.6c-57.6 0-105.6 48-105.6 105.6s48 105.6 105.6 105.6c57.6 0 105.6-48 105.6-105.6s-48-105.6-105.6-105.6z" />
<glyph unicode="&#xe93a;" d="M316.8 192h371.2c9.6 0 16 6.4 16 16v438.4c0 9.6-6.4 16-16 16h-278.4c0 0-3.2 0-3.2 0s0 0 0 0-3.2 0-3.2 0c0 0 0 0 0 0s-3.2-3.2-3.2-3.2l-92.8-108.8c0 0-3.2-3.2-3.2-3.2s0 0 0-3.2c0 0 0-3.2 0-3.2s0 0 0 0v-326.4c-6.4-16 3.2-22.4 12.8-22.4v0zM390.4 601.6v-48h-38.4l38.4 48zM332.8 518.4h76.8c9.6 0 16 6.4 16 16v92.8h246.4v-403.2h-339.2v294.4z" />
<glyph unicode="&#xe93b;" d="M620.8 483.2h-240c-9.6 0-16-6.4-16-16s6.4-16 16-16h240c9.6 0 16 6.4 16 16s-6.4 16-16 16z" />
<glyph unicode="&#xe93c;" d="M620.8 403.2h-240c-9.6 0-16-6.4-16-16s6.4-16 16-16h240c9.6 0 16 6.4 16 16s-6.4 16-16 16z" />
<glyph unicode="&#xe93d;" d="M620.8 320h-240c-9.6 0-16-6.4-16-16s6.4-16 16-16h240c9.6 0 16 6.4 16 16s-6.4 16-16 16z" />
<glyph unicode="&#xe93e;" d="M512-64c-281.6 0-512 230.4-512 512s230.4 512 512 512 512-230.4 512-512-230.4-512-512-512zM512 915.2c-256 0-467.2-211.2-467.2-467.2s211.2-467.2 467.2-467.2 467.2 211.2 467.2 467.2-211.2 467.2-467.2 467.2z" />
<glyph unicode="&#xe93f;" d="M774.4 233.6h-358.4c-16 0-25.6 12.8-25.6 25.6 0 16 12.8 25.6 25.6 25.6h355.2c16 0 25.6-12.8 25.6-25.6 3.2-16-9.6-25.6-22.4-25.6z" />
<glyph unicode="&#xe940;" d="M774.4 400h-358.4c-16 0-25.6 12.8-25.6 25.6s12.8 25.6 25.6 25.6h355.2c16 0 25.6-12.8 25.6-25.6 3.2-16-9.6-25.6-22.4-25.6z" />
<glyph unicode="&#xe941;" d="M774.4 566.4h-358.4c-16 0-25.6 12.8-25.6 25.6s12.8 25.6 25.6 25.6h355.2c16 0 25.6-12.8 25.6-25.6s-9.6-25.6-22.4-25.6z" />
<glyph unicode="&#xe942;" d="M336 592c0-19.44-15.76-35.2-35.2-35.2s-35.2 15.76-35.2 35.2c0 19.44 15.76 35.2 35.2 35.2s35.2-15.76 35.2-35.2z" />
<glyph unicode="&#xe943;" d="M336 425.6c0-19.44-15.76-35.2-35.2-35.2s-35.2 15.76-35.2 35.2c0 19.44 15.76 35.2 35.2 35.2s35.2-15.76 35.2-35.2z" />
<glyph unicode="&#xe944;" d="M336 259.2c0-19.44-15.76-35.2-35.2-35.2s-35.2 15.76-35.2 35.2c0 19.44 15.76 35.2 35.2 35.2s35.2-15.76 35.2-35.2z" />
<glyph unicode="&#xe945;" d="M512-64c-281.6 0-512 230.4-512 512s230.4 512 512 512 512-230.4 512-512-230.4-512-512-512zM512 915.2c-256 0-467.2-211.2-467.2-467.2s211.2-467.2 467.2-467.2 467.2 211.2 467.2 467.2-211.2 467.2-467.2 467.2z" />
<glyph unicode="&#xe946;" d="M678.4 486.4h-22.4v73.6c0 73.6-60.8 134.4-134.4 134.4s-134.4-60.8-134.4-134.4v-73.6h-22.4c-12.8 0-25.6-9.6-25.6-25.6v-246.4c0-12.8 9.6-25.6 25.6-25.6h316.8c12.8 0 25.6 9.6 25.6 25.6v246.4c-3.2 16-16 25.6-28.8 25.6zM435.2 560c0 48 38.4 83.2 83.2 83.2 48 0 83.2-38.4 83.2-83.2v-73.6h-169.6v73.6zM652.8 240h-265.6v195.2h265.6v-195.2z" />
<glyph unicode="&#xe947;" d="M512-64c-281.6 0-512 230.4-512 512s230.4 512 512 512 512-230.4 512-512-230.4-512-512-512zM512 915.2c-256 0-467.2-211.2-467.2-467.2s211.2-467.2 467.2-467.2 467.2 211.2 467.2 467.2-211.2 467.2-467.2 467.2z" />
<glyph unicode="&#xe948;" d="M748.8 268.8l-102.4 102.4 73.6 41.6c6.4 3.2 9.6 9.6 9.6 16s-3.2 12.8-9.6 16l-323.2 128c-6.4 3.2-12.8 0-19.2-3.2-6.4-6.4-6.4-12.8-3.2-19.2l128-323.2c3.2-6.4 9.6-9.6 16-9.6s12.8 3.2 16 9.6l41.6 73.6 102.4-102.4c3.2-3.2 6.4-6.4 12.8-6.4 3.2 0 9.6 3.2 12.8 6.4l48 48c3.2 6.4 3.2 16-3.2 22.4zM688 233.6l-105.6 105.6c-3.2 3.2-6.4 6.4-12.8 6.4 0 0 0 0-3.2 0-6.4 0-9.6-3.2-12.8-9.6l-35.2-60.8-99.2 252.8 252.8-99.2-60.8-35.2c-3.2-3.2-6.4-6.4-9.6-12.8 0-6.4 0-9.6 6.4-12.8l105.6-105.6-25.6-28.8z" />
<glyph unicode="&#xe949;" d="M320 649.6c-6.4 6.4-16 6.4-25.6 0-6.4-6.4-6.4-16 0-25.6l38.4-38.4c3.2-3.2 6.4-6.4 12.8-6.4 3.2 0 9.6 3.2 12.8 6.4 6.4 6.4 6.4 16 0 25.6l-38.4 38.4z" />
<glyph unicode="&#xe94a;" d="M332.8 531.2c0 9.6-6.4 16-16 16h-54.4c-9.6 0-16-6.4-16-16s6.4-16 16-16h54.4c9.6 0 16 6.4 16 16z" />
<glyph unicode="&#xe94b;" d="M326.4 480l-38.4-38.4c-6.4-6.4-6.4-16 0-25.6 3.2-3.2 6.4-6.4 12.8-6.4 3.2 0 9.6 3.2 12.8 6.4l38.4 38.4c6.4 6.4 6.4 16 0 25.6-6.4 6.4-19.2 6.4-25.6 0z" />
<glyph unicode="&#xe94c;" d="M416 611.2c9.6 0 16 6.4 16 16v54.4c0 9.6-6.4 16-16 16s-16-6.4-16-16v-54.4c-3.2-6.4 6.4-16 16-16z" />
<glyph unicode="&#xe94d;" d="M480 592c3.2 0 9.6 3.2 12.8 6.4l38.4 38.4c6.4 6.4 6.4 16 0 25.6-6.4 6.4-16 6.4-25.6 0l-38.4-38.4c-6.4-6.4-6.4-16 0-25.6 3.2-6.4 6.4-6.4 12.8-6.4z" />
<glyph unicode="&#xe94e;" d="M512-64c-282.77 0-512 229.23-512 512s229.23 512 512 512c282.77 0 512-229.23 512-512v0c-0.384-282.615-229.384-511.616-511.963-512h-0.037zM512 915.42c-257.403 0-466.069-208.666-466.069-466.069s208.666-466.069 466.069-466.069c257.403 0 466.069 208.666 466.069 466.069v0c-0.959 256.744-209.217 464.528-466.050 464.718h-0.018z" />
<glyph unicode="&#xe94f;" d="M696.739 394.639v-143.873h-369.815v143.873c0 10.445-8.468 18.913-18.913 18.913v0c-10.445 0-18.913-8.468-18.913-18.913v0-150.628c0-18.652 15.121-33.773 33.773-33.773v0h379.609c18.652 0 33.773 15.121 33.773 33.773v0 150.628c0 10.445-8.468 18.913-18.913 18.913v0c-0.506 0.048-1.094 0.076-1.689 0.076-10.445 0-18.913-8.468-18.913-18.913 0-0.027 0-0.053 0-0.080v0.004z" />
<glyph unicode="&#xe950;" d="M507.272 344.317l-92.876 112.127s-14.185 13.509 0 13.509h52.348v206.691s-2.026 8.106 9.794 8.106h73.625c8.781 0 8.443-6.755 8.443-6.755v-204.665h49.984c18.575 0 4.728-13.847 4.728-13.847s-79.029-105.034-90.174-115.842c-1.916-2.045-4.632-3.318-7.647-3.318-3.327 0-6.292 1.552-8.21 3.972l-0.017 0.022z" />
<glyph unicode="&#xe951;" d="M513.689-64c-0.501-0.002-1.095-0.003-1.689-0.003-282.77 0-512 229.23-512 512s229.23 512 512 512c282.769 0 511.998-229.229 512-511.997v0c-0.381-282.024-228.422-510.659-510.184-512h-0.128zM513.689 915.42c-257.403 0-466.069-208.666-466.069-466.069s208.666-466.069 466.069-466.069c257.403 0 466.069 208.666 466.069 466.069v0c-1.15 256.599-209.335 464.19-466.050 464.38h-0.019z" />
<glyph unicode="&#xe952;" d="M410.681 575.325h51.673v-149.615s0-7.092 9.119-7.092h79.029c12.834 0 10.47 8.443 10.47 8.443v151.979h56.063c16.549 0 0 14.185 0 14.185l-98.28 120.232c-2.048 2.263-4.996 3.679-8.274 3.679s-6.227-1.416-8.266-3.669l-0.009-0.010c-11.821-11.821-96.591-124.285-96.591-124.285s-15.198-13.847 5.066-13.847z" />
<glyph unicode="&#xe953;" d="M712.612 177.815h-401.562c-20.974 0.376-37.832 17.467-37.832 38.495 0 0.24 0.002 0.479 0.007 0.717l-0.001-0.036v266.132c0.372 20.739 17.087 37.454 37.791 37.825h98.652v-40.19h-96.253v-33.773l200.274-124.96 198.586 124.96v33.773h-99.293v40.19h99.631c20.594-0.556 37.122-17.202 37.488-37.791v-266.167c0.004-0.205 0.006-0.447 0.006-0.689 0-20.91-16.668-37.926-37.442-38.487l-0.052-0.001zM313.414 216.992h397.509v184.739l-187.441-120.57c-3.158-1.91-6.974-3.040-11.053-3.040-0.032 0-0.065 0-0.097 0h0.005c-0.113-0.002-0.247-0.003-0.381-0.003-4.323 0-8.382 1.128-11.9 3.106l0.122-0.063-186.765 121.583z" />
<glyph unicode="&#xe954;" d="M403.2 204.8c-19.2 0-38.4 6.4-54.4 22.4l-150.4 144c-32 28.8-32 80-3.2 108.8 28.8 32 80 32 108.8 3.2l96-89.6 297.6 307.2c28.8 32 80 32 108.8 3.2 32-28.8 32-80 3.2-108.8l-352-361.6c-12.8-19.2-32-28.8-54.4-28.8z" />
<glyph unicode="&#xe955;" glyph-name="radio_active_pru" d="M447.2 956.8c-113-14.6-215.6-65.2-297.2-146.8-71.4-71.2-116.8-154-138.8-252.6-15.2-67.4-15.2-151.4 0-218.8 12.8-57.6 36.4-115.6 66-162.6 40.2-63.4 99.8-122.8 164.6-164 41.8-26.4 108.6-53.4 160.2-64.8 68.8-15.2 151.8-15.2 219.4 0 78 17.4 148 50.8 210.6 100.4 39.8 31.4 86 83 114.8 128.4 27.4 43 54.4 109.4 66 162.2 15 68 15 151.4 0 219.8-11.6 52.2-37.4 116.2-64.8 160-28.2 45.4-78.8 102.2-118 132.4-77.2 59.6-162.4 95-256 106.6-30.8 3.8-96.4 3.6-126.8-0.2zM767.6 724c40.6-7.6 68.8-47.2 62.4-87.6-4.2-25.6-1.4-22.4-186-212-94-96.6-178-183.2-186.6-192.2-23-24.2-42.2-31.6-68.6-26.2-21.8 4.6-27.6 9-99.2 77.6-102.6 97.8-102.8 98-109 111.6-5 10.4-5.6 14-5.6 31.8 0 18.6 0.4 21 6.4 33.2 8 16 22.2 30 38.2 37.4 21.6 10 52.4 8 72.4-4.6 3.8-2.6 29.6-25.8 57.2-51.6l50.4-47.2 30.8 31.4c17 17.2 86.2 88.4 153.4 158 69.6 71.8 126.2 128.6 131 131.4 9.2 5.4 26.8 10.6 36.4 10.8 3.4 0.2 10.8-0.6 16.4-1.8z" />
<glyph unicode="&#xe956;" glyph-name="radio-disabled" horiz-adv-x="1069" d="M1049.6 448c0-273.933-229.23-496-512-496s-512 222.067-512 496c0 273.933 229.23 496 512 496s512-222.067 512-496z" />
<glyph unicode="&#xea39;" glyph-name="arrow-up-left2" d="M877.254 173.254l-530.744 530.746h229.49c35.346 0 64 28.654 64 64s-28.654 64-64 64h-384c-25.886 0-49.222-15.592-59.128-39.508-3.282-7.924-4.84-16.242-4.838-24.492h-0.034v-384c0-35.346 28.654-64 64-64s64 28.654 64 64v229.49l530.746-530.744c12.496-12.498 28.876-18.746 45.254-18.746s32.758 6.248 45.254 18.746c24.994 24.992 24.994 65.516 0 90.508z" />
<glyph unicode="&#xea3a;" glyph-name="arrow-up2" d="M877.254 557.254l-320 320c-24.992 24.994-65.514 24.994-90.508 0l-320-320c-24.994-24.994-24.994-65.516 0-90.51 24.994-24.996 65.516-24.996 90.51 0l210.744 210.746v-613.49c0-35.346 28.654-64 64-64s64 28.654 64 64v613.49l210.746-210.746c12.496-12.496 28.876-18.744 45.254-18.744s32.758 6.248 45.254 18.746c24.994 24.994 24.994 65.514 0 90.508z" />
<glyph unicode="&#xea3b;" glyph-name="arrow-up-right2" d="M237.254 82.746l530.746 530.744v-229.49c0-35.346 28.654-64 64-64s64 28.654 64 64v384c0 25.884-15.594 49.222-39.508 59.126-7.924 3.284-16.242 4.84-24.492 4.838v0.036h-384c-35.346 0-64-28.654-64-64 0-35.348 28.654-64 64-64h229.49l-530.744-530.746c-12.498-12.496-18.746-28.876-18.746-45.254s6.248-32.758 18.746-45.254c24.992-24.994 65.516-24.994 90.508 0z" />
<glyph unicode="&#xea3c;" glyph-name="arrow-right2" d="M621.254 82.746l320 320c24.994 24.992 24.994 65.516 0 90.51l-320 320c-24.994 24.992-65.516 24.992-90.51 0-24.994-24.994-24.994-65.516 0-90.51l210.746-210.746h-613.49c-35.346 0-64-28.654-64-64s28.654-64 64-64h613.49l-210.746-210.746c-12.496-12.496-18.744-28.876-18.744-45.254s6.248-32.758 18.744-45.254c24.994-24.994 65.516-24.994 90.51 0z" />
<glyph unicode="&#xea3d;" glyph-name="arrow-down-right2" d="M146.746 722.746l530.742-530.746h-229.488c-35.346 0-64-28.654-64-64s28.654-64 64-64h384c25.884 0 49.222 15.594 59.126 39.508 3.284 7.924 4.84 16.242 4.838 24.492h0.036v384c0 35.346-28.654 64-64 64-35.348 0-64-28.654-64-64v-229.49l-530.746 530.744c-12.496 12.498-28.874 18.746-45.254 18.746s-32.758-6.248-45.254-18.746c-24.994-24.992-24.994-65.516 0-90.508z" />
<glyph unicode="&#xea3e;" glyph-name="arrow-down2" d="M877.254 338.746l-320-320c-24.992-24.994-65.514-24.994-90.508 0l-320 320c-24.994 24.994-24.994 65.516 0 90.51 24.994 24.996 65.516 24.996 90.51 0l210.744-210.746v613.49c0 35.346 28.654 64 64 64s64-28.654 64-64v-613.49l210.746 210.746c12.496 12.496 28.876 18.744 45.254 18.744s32.758-6.248 45.254-18.746c24.994-24.994 24.994-65.514 0-90.508z" />
<glyph unicode="&#xea3f;" glyph-name="arrow-down-left2" d="M786.744 813.256l-530.744-530.744v229.49c0 35.346-28.654 64-64 64s-64-28.654-64-64v-384.002c0-25.886 15.592-49.222 39.508-59.128 7.924-3.282 16.242-4.84 24.492-4.836v-0.036l384 0.002c35.344 0 64 28.654 64 63.998 0 35.348-28.656 64-64 64h-229.49l530.744 530.746c12.496 12.496 18.746 28.876 18.746 45.256 0 16.376-6.25 32.758-18.746 45.254-24.992 24.992-65.518 24.992-90.51 0v0z" />
<glyph unicode="&#xea40;" glyph-name="arrow-left2" d="M402.746 82.746l-320 320c-24.994 24.992-24.994 65.516 0 90.51l320 320c24.994 24.992 65.516 24.992 90.51 0 24.994-24.994 24.994-65.516 0-90.51l-210.746-210.746h613.49c35.346 0 64-28.654 64-64s-28.654-64-64-64h-613.49l210.746-210.746c12.496-12.496 18.744-28.876 18.744-45.254s-6.248-32.758-18.744-45.254c-24.994-24.994-65.516-24.994-90.51 0z" />
<glyph unicode="&#xf044;" glyph-name="triangle-left" horiz-adv-x="383" d="M0 448.125l383.75-383.75v767.5l-383.75-383.75z" />
<glyph unicode="&#xf05a;" glyph-name="triangle-right" horiz-adv-x="383" d="M0.062 831.75l383.75-383.75-383.75-383.75v767.5z" />
<glyph unicode="&#xf05b;" glyph-name="triangle-down" horiz-adv-x="767" d="M0 576l383.75-383.75 383.75 383.75h-767.5z" />
<glyph unicode="&#xf0aa;" glyph-name="triangle-up" horiz-adv-x="767" d="M383.75 704l-383.75-383.75h767.5l-383.75 383.75z" />
</font>
</defs>
</svg>
